<svg width="60" height="43" viewBox="0 0 60 43" fill="none" xmlns="http://www.w3.org/2000/svg">
<path d="M14.837 42.6253C11.0326 42.6253 7.6087 41.1036 4.56522 38.0601C1.52174 34.9079 0 30.2884 0 24.2014C0 17.2449 1.84783 11.5927 5.54348 7.24484C9.34783 2.78831 14.7283 0.560059 21.6848 0.560059C24.1848 0.560059 26.1413 0.723097 27.5543 1.04918V8.54918C26.0326 8.33179 24.0761 8.2231 21.6848 8.2231C17.9891 8.2231 15 9.4731 12.7174 11.9731C10.5435 14.147 9.29348 17.0275 8.96739 20.6144C10.3804 18.8753 12.663 18.0057 15.8152 18.0057C19.0761 18.0057 21.8478 19.1471 24.1304 21.4297C26.413 23.6036 27.5543 26.484 27.5543 30.071C27.5543 33.7666 26.3587 36.8101 23.9674 39.2014C21.5761 41.484 18.5326 42.6253 14.837 42.6253ZM47.2826 42.6253C43.4783 42.6253 40.0543 41.1036 37.0109 38.0601C33.9674 34.9079 32.4456 30.2884 32.4456 24.2014C32.4456 17.2449 34.2935 11.5927 37.9891 7.24484C41.7935 2.78831 47.1739 0.560059 54.1304 0.560059C56.6304 0.560059 58.587 0.723097 60 1.04918V8.54918C58.4783 8.33179 56.5217 8.2231 54.1304 8.2231C50.4348 8.2231 47.4456 9.4731 45.163 11.9731C42.9891 14.147 41.7391 17.0275 41.413 20.6144C42.8261 18.8753 45.1087 18.0057 48.2609 18.0057C51.5217 18.0057 54.2935 19.1471 56.5761 21.4297C58.8587 23.6036 60 26.484 60 30.071C60 33.7666 58.8043 36.8101 56.413 39.2014C54.0217 41.484 50.9783 42.6253 47.2826 42.6253Z" fill="#EB662B"/>
</svg>
